<?xml version="1.0" encoding="utf-8"?>
<!-- Generator: Adobe Illustrator 19.0.0, SVG Export Plug-In . SVG Version: 6.00 Build 0)  -->
<svg version="1.1" id="Layer_1" xmlns="http://www.w3.org/2000/svg" xmlns:xlink="http://www.w3.org/1999/xlink" x="0px" y="0px"
	 viewBox="0 0 453 440" style="enable-background:new 0 0 453 440;" xml:space="preserve">
<path id="XMLID_148_" d="M313.1,197.2c0.7,1.8,1.3,3.6,2.2,5.3c8.2,14.5,16.4,29,25,43.3c2,3.3,1.7,5.6-0.1,8.7
	c-25.5,44-50.9,88-76.2,132.1c-1.7,3-3.6,4.2-7.1,4.2c-18.5-0.2-37-0.2-55.4,0c-3.5,0-5.4-0.9-7.2-4
	C142.5,297,90.7,207.2,38.8,117.5c-1.6-2.8-1.9-4.9-0.2-7.8c10.1-17.1,20-34.4,29.8-51.6c1.6-2.9,3.5-3.9,6.8-3.8
	c12.4,0.2,24.8,0,37.1,0.1c1.6,0,3.9,0.6,4.6,1.7c9.8,16.6,19.4,33.3,29.5,50.7c-17.7,0-34.6,0-52.6,0c45.2,78.5,90,156.1,135,234.2
	c1-1.5,1.9-2.5,2.6-3.6c16.2-27.9,32.2-55.8,48.5-83.6c1.8-3,1.3-4.9-0.3-7.7c-35.8-61.8-71.4-123.7-107.1-185.6
	c-1-1.7-1.9-3.4-3.2-5.9c2.3-0.1,3.9-0.3,5.6-0.3c69.3,0,138.5,0,207.8-0.1c3.5,0,5.4,1,7.2,4.1c9.7,17.1,19.5,34.2,29.5,51.2
	c1.7,2.8,1.7,5,0,7.8c-14.8,25.4-29.5,50.8-44,76.3c-1.5,2.7-3.3,3.6-6.4,3.6c-18.6-0.1-37.3,0.1-55.9,0.2c0.7-1.6,1.2-3.3,2-4.8
	c15.4-26.9,30.9-53.7,46.3-80.5c0.8-1.5,1.6-3,2.5-4.9c-34.6,0-68.6,0-103.1,0c0.6,1.3,1,2.3,1.5,3.2c16.1,27.9,32.1,55.9,48.2,83.8
	C311.1,195.2,312.2,196.1,313.1,197.2z"/>
</svg>
